<svg width="65" height="64" viewBox="0 0 65 64" fill="none" xmlns="http://www.w3.org/2000/svg">
<path fill-rule="evenodd" clip-rule="evenodd" d="M32.5 56C45.7548 56 56.5 45.2548 56.5 32C56.5 18.7452 45.7548 8 32.5 8C19.2452 8 8.5 18.7452 8.5 32C8.5 45.2548 19.2452 56 32.5 56ZM39.719 24.781C38.6776 23.7397 36.9891 23.7397 35.9477 24.781L32.5 28.2288L29.0523 24.781C28.0109 23.7397 26.3224 23.7397 25.281 24.781C24.2397 25.8224 24.2397 27.5109 25.281 28.5523L28.7288 32L25.281 35.4477C24.2397 36.4891 24.2397 38.1776 25.281 39.219C26.3224 40.2604 28.0109 40.2604 29.0523 39.219L32.5 35.7712L35.9477 39.219C36.9891 40.2604 38.6776 40.2604 39.719 39.219C40.7604 38.1776 40.7604 36.4891 39.719 35.4477L36.2712 32L39.719 28.5523C40.7603 27.5109 40.7603 25.8224 39.719 24.781Z" fill="#ED6547"/>
</svg>
