<svg width="71" height="64" viewBox="0 0 71 64" fill="none" xmlns="http://www.w3.org/2000/svg">
<path d="M35.5 32.7367C36.0493 32.7367 36.5327 32.576 37.082 32.0939L44.4429 25.6051C44.8164 25.2635 45.0361 24.9019 45.0361 24.3997C45.0361 23.4555 44.2012 22.7926 43.1904 22.7926C42.6851 22.7926 42.1797 22.9734 41.8281 23.335L38.752 26.3283L37.3896 27.8149L37.5654 24.8216V7.74568C37.5654 6.74121 36.6426 5.89746 35.5 5.89746C34.3794 5.89746 33.4565 6.74121 33.4565 7.74568V24.8216L33.6104 27.8149L32.248 26.3283L29.1938 23.335C28.8423 22.9734 28.3149 22.7926 27.8096 22.7926C26.7988 22.7926 25.9858 23.4555 25.9858 24.3997C25.9858 24.9019 26.1836 25.2635 26.5571 25.6051L33.9399 32.0939C34.4673 32.576 34.9727 32.7367 35.5 32.7367ZM16.6914 52.5448H54.2866C59.0547 52.5448 61.5376 50.2948 61.5376 45.9957V34.4845C61.5376 32.4555 61.252 31.451 60.2412 30.1854L52.9463 21.1653C50.3975 17.9912 48.6177 16.4644 44.5967 16.4644H41.6304V19.7591H44.8164C46.3545 19.7591 47.8926 20.9242 48.8594 22.1095L56.3301 31.6318C57.0771 32.5359 56.8135 32.9176 55.6929 32.9176H42.5752C41.3008 32.9176 40.7295 33.7211 40.7295 34.585V34.6653C40.7295 37.0158 38.73 39.547 35.5 39.547C32.27 39.547 30.2705 37.0158 30.2705 34.6653V34.585C30.2705 33.7211 29.6992 32.9176 28.4248 32.9176H15.3071C14.1646 32.9176 13.9448 32.4756 14.6479 31.6318L22.1187 22.1095C23.1074 20.9242 24.6455 19.7591 26.1836 19.7591H29.3696V16.4644H26.3813C22.3604 16.4644 20.6025 17.9912 18.0537 21.1653L10.7368 30.1854C9.72607 31.451 9.4624 32.4555 9.4624 34.4845V45.9957C9.4624 50.2948 11.9453 52.5448 16.6914 52.5448Z" fill="#BFC6D0"/>
</svg>
