<svg width="24" height="24" viewBox="0 0 24 24" fill="none" xmlns="http://www.w3.org/2000/svg">
<path d="M7.74858 7.76607C8.26683 7.24782 8.99551 7.25622 9.50445 7.76516L12.0053 10.266L14.5087 7.76258C15.0182 7.25311 15.7293 7.24396 16.2295 7.74413C16.7472 8.26184 16.7468 8.98175 16.2374 9.49122L13.7339 11.9946L16.2435 14.5042C16.7437 15.0044 16.7521 15.7331 16.2339 16.2514C15.7332 16.752 15.0045 16.7436 14.5043 16.2435L11.9947 13.7339L9.49129 16.2373C8.99061 16.738 8.26191 16.7471 7.7442 16.2294C7.24403 15.7292 7.26196 15.0093 7.76265 14.5086L10.2661 12.0052L7.76523 9.50438C7.25629 8.99544 7.24789 8.26676 7.74858 7.76607Z" fill="#8787A2"/>
</svg>
