<svg xmlns="http://www.w3.org/2000/svg" width="56" height="56" viewBox="0 0 56 56" fill="none">
<path fill-rule="evenodd" clip-rule="evenodd" d="M30.5 20.3804C35.6307 20.3804 39.8043 24.5997 39.8043 29.7847C39.8043 34.0926 36.9232 37.7304 33.0063 38.8394V44.7467L44.5024 38.7837C44.8001 38.6288 44.9875 38.3216 44.9875 37.9817V34.7661H50V37.9817C50 40.2299 48.7705 42.2657 46.7915 43.2924L33.1963 50.3424C32.3615 50.7737 31.4375 50.9991 30.5 51C29.5625 50.999 28.6385 50.7737 27.8038 50.3424L14.2095 43.2915C12.2353 42.2738 10.9946 40.2208 11 37.9809V34.7661H16.0125V37.9817C16.0125 38.3216 16.199 38.6288 16.4985 38.7837L27.9938 44.7458V38.8394C24.0777 37.7304 21.1958 34.0926 21.1958 29.7847C21.1958 24.5997 25.3702 20.3804 30.5 20.3804ZM30.5 25.4476C28.1312 25.4501 26.2115 27.3904 26.2091 29.7847C26.2091 32.1763 28.1339 34.1218 30.5 34.1218C32.8661 34.1218 34.7909 32.1763 34.7909 29.7847C34.7909 27.3931 32.8661 25.4476 30.5 25.4476ZM27.8046 9.65722C29.4973 8.78093 31.5036 8.78093 33.1963 9.65722L46.7897 16.7063C48.7637 17.7242 50.0043 19.777 49.9991 22.0169V25.2317H44.9866V22.0169C44.9866 21.6779 44.8001 21.3699 44.5006 21.2141L30.9081 14.1651C30.6521 14.0327 30.3488 14.0327 30.0928 14.1651L16.4977 21.215C16.1998 21.3694 16.0127 21.6795 16.0134 22.0178V25.2326H11V22.0178C11 19.7696 12.2295 17.7339 14.2086 16.7071L27.8046 9.65722Z" fill="#2075E8"/>
</svg>