<svg width="16" height="16" viewBox="0 0 16 16" fill="none" xmlns="http://www.w3.org/2000/svg">
<circle cx="7.75" cy="7.75" r="7.75" fill="white"/>
<path d="M7.90221 3C9.19528 3 10.2435 4.0311 10.2435 5.30281C10.2435 6.57484 9.19528 7.60594 7.90221 7.60594C6.60915 7.60594 5.56095 6.57484 5.56095 5.30281C5.56095 4.03077 6.60947 3 7.90221 3ZM7.90221 3C9.19528 3 10.2435 4.0311 10.2435 5.30281C10.2435 6.57484 9.19528 7.60594 7.90221 7.60594C6.60915 7.60594 5.56095 6.57484 5.56095 5.30281C5.56095 4.03077 6.60947 3 7.90221 3ZM7.02428 8.37376H8.97572C10.6461 8.37376 12 9.70529 12 11.3484V11.54C12 12.1876 10.6458 12.2122 8.97572 12.2122H7.02428C5.35388 12.2122 4 12.2112 4 11.54V11.3484C4 9.70529 5.35388 8.37376 7.02428 8.37376Z" fill="#393939"/>
</svg>
